{"title":"Roadie.2011.DVDScr.DivX5-Eko","uid":6896018,"size":919142228,"categoryP":"video","categoryS":"movies","magnet":"?xt=urn:btih:8619c17362e0f5f7185cf5f1c5c9de883a646cc3&amp;dn=Roadie.2011.DVDScr.DivX5-Eko&amp;tr=udp%3A%2F%2Ftracker.openbittorrent.com%3A80&amp;tr=udp%3A%2F%2Fopen.demonii.com%3A1337&amp;tr=udp%3A%2F%2Ftracker.coppersurfer.tk%3A6969&amp;tr=udp%3A%2F%2Fexodus.desync.com%3A6969","seeders":0,"leechers":0,"uploader":"TvTeam","files":5,"time":1324167349,"description":". \n &lt;a href=&quot;\nhttp://www.torrenting.com&quot; rel=&quot;nofollow&quot; target=&quot;_NEW&quot;&gt;\nhttp://www.torrenting.com&lt;/a&gt;          :     Once &amp; For all ;)\n\n\n               www . Torrenting . Com \n\n(((((((((((((= Enjoy No RAR releases =))))))))))))))))))))\n\n\n...................................NFO:....................................\n\n.http://www.imdb.com/title/tt1450330/\n\nGeneral\nComplete name                    : Roadie.2011.DVDScr.DivX5-Eko.avi\nFormat                           : AVI\nFormat/Info                      : Audio Video Interleave\nFile size                        : 870 MiB\nDuration                         : 1h 35mn\nOverall bit rate                 : 1 268 Kbps\n\nVideo\nID                               : 0\nFormat                           : MPEG-4 Visual\nFormat settings, BVOP            : 1\nFormat settings, QPel            : No\nFormat settings, GMC             : No warppoints\nFormat settings, Matrix          : Default (H.263)\nMuxing mode                      : Packed bitstream\nCodec ID                         : DX50\nCodec ID/Hint                    : DivX 5\nDuration                         : 1h 35mn\nBit rate                         : 1 131 Kbps\nWidth                            : 704 pixels\nHeight                           : 396 pixels\nDisplay aspect ratio             : 16:9\nFrame rate                       : 23.976 fps\nColor space                      : YUV\nChroma subsampling               : 4:2:0\nBit depth                        : 8 bits\nScan type                        : Progressive\nCompression mode                 : Lossy\nBits/(Pixel*Frame)               : 0.169\nStream size                      : 775 MiB (89%)\nTitle                            : Video \nWriting library                  : DivX 3013\n\nAudio\nID                               : 1\nFormat                           : MPEG Audio\nFormat version                   : Version 1\nFormat profile                   : Layer 3\nCodec ID                         : 55\nCodec ID/Hint                    : MP3\nDuration                         : 1h 35mn\nBit rate mode                    : Constant\nBit rate                         : 128 Kbps\nChannel(s)                       : 2 channels\nSampling rate                    : 48.0 KHz\nCompression mode                 : Lossy\nStream size                      : 87.8 MiB (10%)\nAlignment                        : Split accross interleaves\nInterleave, duration             : 42 ms (1.00 video frame)\nInterleave, preload duration     : 500 ms\nTitle                            : Audio","torrent":{"xt":"urn:btih:8619c17362e0f5f7185cf5f1c5c9de883a646cc3","amp;dn":"Roadie.2011.DVDScr.DivX5-Eko","amp;tr":["udp%3A%2F%2Ftracker.openbittorrent.com%3A80","udp%3A%2F%2Fopen.demonii.com%3A1337","udp%3A%2F%2Ftracker.coppersurfer.tk%3A6969","udp%3A%2F%2Fexodus.desync.com%3A6969"],"infoHash":"8619c17362e0f5f7185cf5f1c5c9de883a646cc3","infoHashBuffer":{"type":"Buffer","data":[134,25,193,115,98,224,245,247,24,92,245,241,197,201,222,136,58,100,108,195]},"announce":[],"urlList":[]}}